<svg width="22" height="22" viewBox="0 0 22 22" fill="none" xmlns="http://www.w3.org/2000/svg">
<path d="M2.91663 14.3395V2.33948H0.916626V0.339478H3.91663C4.18184 0.339478 4.4362 0.444834 4.62373 0.632371C4.81127 0.819907 4.91663 1.07426 4.91663 1.33948V13.3395H17.3546L19.3546 5.33948H6.91663V3.33948H20.6366C20.7886 3.33948 20.9386 3.37414 21.0752 3.44081C21.2118 3.50749 21.3314 3.60443 21.425 3.72426C21.5185 3.8441 21.5834 3.98368 21.6149 4.13239C21.6464 4.2811 21.6436 4.43503 21.6066 4.58248L19.1066 14.5825C19.0525 14.7987 18.9276 14.9907 18.7518 15.1278C18.5761 15.265 18.3596 15.3395 18.1366 15.3395H3.91663C3.65141 15.3395 3.39706 15.2341 3.20952 15.0466C3.02198 14.859 2.91663 14.6047 2.91663 14.3395ZM4.91663 21.3395C4.38619 21.3395 3.87749 21.1288 3.50241 20.7537C3.12734 20.3786 2.91663 19.8699 2.91663 19.3395C2.91663 18.809 3.12734 18.3003 3.50241 17.9253C3.87749 17.5502 4.38619 17.3395 4.91663 17.3395C5.44706 17.3395 5.95577 17.5502 6.33084 17.9253C6.70591 18.3003 6.91663 18.809 6.91663 19.3395C6.91663 19.8699 6.70591 20.3786 6.33084 20.7537C5.95577 21.1288 5.44706 21.3395 4.91663 21.3395ZM16.9166 21.3395C16.3862 21.3395 15.8775 21.1288 15.5024 20.7537C15.1273 20.3786 14.9166 19.8699 14.9166 19.3395C14.9166 18.809 15.1273 18.3003 15.5024 17.9253C15.8775 17.5502 16.3862 17.3395 16.9166 17.3395C17.4471 17.3395 17.9558 17.5502 18.3308 17.9253C18.7059 18.3003 18.9166 18.809 18.9166 19.3395C18.9166 19.8699 18.7059 20.3786 18.3308 20.7537C17.9558 21.1288 17.4471 21.3395 16.9166 21.3395Z" fill="#FF476F"/>
</svg>
