<svg width="20" height="22" viewBox="0 0 20 22" fill="none" xmlns="http://www.w3.org/2000/svg">
<path d="M10.8334 13.5915V15.6815C9.9283 15.3615 8.95965 15.2633 8.00878 15.3953C7.05791 15.5272 6.15257 15.8854 5.36881 16.4397C4.58504 16.994 3.94572 17.7283 3.50454 18.5809C3.06335 19.4335 2.83319 20.3795 2.83337 21.3395L0.833374 21.3385C0.833064 20.1174 1.1123 18.9124 1.64967 17.8159C2.18705 16.7194 2.96831 15.7604 3.93359 15.0125C4.89887 14.2646 6.02255 13.7476 7.21853 13.5011C8.4145 13.2546 9.65104 13.2852 10.8334 13.5905V13.5915ZM8.83337 12.3395C5.51837 12.3395 2.83337 9.65448 2.83337 6.33948C2.83337 3.02448 5.51837 0.339478 8.83337 0.339478C12.1484 0.339478 14.8334 3.02448 14.8334 6.33948C14.8334 9.65448 12.1484 12.3395 8.83337 12.3395ZM8.83337 10.3395C11.0434 10.3395 12.8334 8.54948 12.8334 6.33948C12.8334 4.12948 11.0434 2.33948 8.83337 2.33948C6.62337 2.33948 4.83337 4.12948 4.83337 6.33948C4.83337 8.54948 6.62337 10.3395 8.83337 10.3395ZM15.4194 16.3395L13.5904 14.5115L15.0054 13.0965L19.2474 17.3395L15.0054 21.5825L13.5904 20.1675L15.4194 18.3395H11.8334V16.3395H15.4194Z" fill="#FF476F"/>
</svg>
