<svg width="55" height="26" viewBox="0 0 55 26" fill="none" xmlns="http://www.w3.org/2000/svg">
<path d="M28.4849 8.10065C28.4537 11.5822 30.6818 13.525 32.3603 14.6802C34.0848 15.8653 34.6641 16.6254 34.6572 17.6853C34.6444 19.3073 33.2816 20.0232 32.0065 20.051C29.7817 20.0997 28.4881 19.2027 27.4598 18.5243L26.6583 23.8207C27.6901 24.4922 29.6006 25.0778 31.5818 25.1035C36.2323 25.1035 39.2747 21.8614 39.2912 16.8346C39.3094 10.4549 33.0432 10.1017 33.086 7.2502C33.1008 6.38555 33.6849 5.46285 34.965 5.22824C35.5986 5.10973 37.3478 5.01903 39.3308 6.30876L40.1092 1.18432C39.0427 0.635895 37.6721 0.110754 35.9656 0.110754C31.5884 0.110754 28.5098 3.39705 28.4849 8.10065ZM47.5881 0.552149C46.7389 0.552149 46.0233 1.25173 45.7039 2.32529L39.0609 24.7271H43.708L44.6327 21.1176H50.3114L50.8478 24.7271H54.9437L51.3695 0.552149H47.5881ZM48.2382 7.08271L49.5793 16.1607H45.9064L48.2382 7.08271ZM22.8506 0.552452L19.1875 24.7268H23.6159L27.2772 0.551847L22.8506 0.552452ZM16.2996 0.551847L11.6904 17.0066L9.82594 3.01581C9.60717 1.45399 8.74321 0.552149 7.78378 0.552149H0.24921L0.143677 1.25415C1.69049 1.7282 3.44795 2.49278 4.51269 3.31088C5.1643 3.81063 5.35011 4.24749 5.56417 5.43503L9.09556 24.7271H13.7752L20.9497 0.552149L16.2996 0.551847Z" fill="url(#paint0_linear_1184_763)"/>
<defs>
<linearGradient id="paint0_linear_1184_763" x1="25.3374" y1="25.6049" x2="26.3584" y2="-0.042813" gradientUnits="userSpaceOnUse">
<stop stop-color="#222357"/>
<stop offset="1" stop-color="#254AA5"/>
</linearGradient>
</defs>
</svg>
